<svg enable-background="new 0 0 128 128" height="128" viewBox="0 0 128 128" width="128" xmlns="http://www.w3.org/2000/svg"><g fill="#282d33"><path d="m37.05 8.767h17.936v4.036h-17.936z" transform="matrix(.3042 .9526 -.9526 .3042 42.295 -36.3328)"/><path d="m13.003 24.933h17.896v4.036h-17.896z" transform="matrix(.739 .6737 -.6737 .739 23.8846 -7.7548)"/><path d="m.225 51.024h17.858v4.037h-17.858z" transform="matrix(.9772 .2123 -.2123 .9772 11.472 -.7342)"/><path d="m9.033 73.142h4.036v17.861h-4.036z" transform="matrix(.3072 .9517 -.9517 .3072 85.7612 46.3452)"/><path d="m25.121 97.305h4.036v17.909h-4.036z" transform="matrix(.7423 .6701 -.6701 .7423 78.1944 9.1984)"/><path d="m73.017 115.197h17.934v4.036h-17.934z" transform="matrix(.3039 .9527 -.9527 .3039 168.7346 3.4827)"/><path d="m97.103 99.03h17.894v4.036h-17.894z" transform="matrix(.739 .6737 -.6737 .739 95.7523 -45.0721)"/><path d="m109.918 72.94h17.857v4.034h-17.857z" transform="matrix(.9771 .2127 -.2127 .9771 18.6612 -23.5618)"/><path d="m114.932 36.995h4.036v17.859h-4.036z" transform="matrix(.3066 .9519 -.9519 .3066 124.8111 -79.473)"/><path d="m98.843 12.787h4.037v17.903h-4.037z" transform="matrix(.7422 .6702 -.6702 .7422 40.5737 -61.9937)"/><path d="m63.999 103.793c-21.84 0-39.609-17.853-39.609-39.797 0-21.943 17.769-39.795 39.609-39.795 21.841 0 39.609 17.852 39.609 39.795 0 21.944-17.768 39.797-39.609 39.797zm0-75.555c-19.615 0-35.573 16.041-35.573 35.758 0 19.719 15.958 35.761 35.573 35.761s35.573-16.042 35.573-35.761c0-19.717-15.958-35.758-35.573-35.758z"/><path d="m45.855 125.109 14.147-46.678h-32.101l54.243-73.557-14.146 46.68h32.101zm-9.962-50.713h29.551l-8.929 29.457 35.592-48.263h-29.55l8.928-29.46z"/></g></svg>